<svg id="Layer_3" data-name="Layer 3" xmlns="http://www.w3.org/2000/svg" viewBox="0 0 624.47 122.52"><path d="M603.12,363.91h0a8.88,8.88,0,0,1-8.88,8.88H580.32v65.76a9,9,0,0,1-9,9H569.4V372.79H546.48a8.88,8.88,0,0,1,8.88-8.88Zm13.8,5a7.4,7.4,0,1,1,10.38-10.56,7.69,7.69,0,0,1,0,10.56,7.34,7.34,0,0,1-10.38,0Zm10.56,21.84v56.76h-1.92a9,9,0,0,1-9-9V381.79h1.92A9,9,0,0,1,627.48,390.79Zm18.6,5.94a29.35,29.35,0,0,1,11.34-11.82,32.58,32.58,0,0,1,16.62-4.2q12.12,0,20,5.88a27.75,27.75,0,0,1,10.38,16.32h-5.89a9.2,9.2,0,0,1-7.82-4.56,16.66,16.66,0,0,0-4.59-4.92A20.18,20.18,0,0,0,674,390q-9.36,0-15.12,6.42t-5.76,18.18q0,11.88,5.76,18.36T674,439.39A20.42,20.42,0,0,0,686,436a16.16,16.16,0,0,0,4.66-5,9.11,9.11,0,0,1,7.83-4.56h5.87a28.92,28.92,0,0,1-10.56,16.14q-7.92,6.06-19.8,6.06a32.58,32.58,0,0,1-16.62-4.2,29.26,29.26,0,0,1-11.34-11.88,37.83,37.83,0,0,1-4.08-18A37.2,37.2,0,0,1,646.08,396.73ZM753,444.53l-23.11-26v20a9,9,0,0,1-9,9h-1.92v-79.8a9,9,0,0,1,9-9h1.92V411l22.63-26.06a9,9,0,0,1,6.79-3.1H770.4l-31,32.76,31.08,33H759.68A9,9,0,0,1,753,444.53Zm81.14-25.78H787.8q.6,9.72,6.66,15.18a21.18,21.18,0,0,0,14.7,5.46,20.19,20.19,0,0,0,11.82-3.3,17.41,17.41,0,0,0,5.2-5.62,6.57,6.57,0,0,1,5.71-3.2h7.51a28.27,28.27,0,0,1-10.56,15.42q-7.92,5.94-19.68,5.94a33.24,33.24,0,0,1-16.74-4.2,29.73,29.73,0,0,1-11.58-11.94,37,37,0,0,1-4.2-17.94,37.56,37.56,0,0,1,4.08-17.88,28.64,28.64,0,0,1,11.46-11.82,34.11,34.11,0,0,1,17-4.14,33,33,0,0,1,16.56,4.08A28.25,28.25,0,0,1,836.82,396a33.11,33.11,0,0,1,3.9,16.14v.06A6.61,6.61,0,0,1,834.09,418.75Zm-7.41-19.62a18,18,0,0,0-7.5-6.84,23.39,23.39,0,0,0-10.5-2.34,20.24,20.24,0,0,0-14.1,5.28q-5.82,5.28-6.66,14.64h41.52A20.14,20.14,0,0,0,826.68,399.13Zm41.76-8.34v38.76q0,4.8,2,6.78t7.08,2h8v.24a9,9,0,0,1-9,9h-.84q-9.12,0-13.68-4.2t-4.56-13.8V390.79H849v-.48a8.51,8.51,0,0,1,8.52-8.52h0V365.23h1.92a9,9,0,0,1,9,9v7.56H885.6v.48a8.53,8.53,0,0,1-8.52,8.52Zm50.94-6.3a28.9,28.9,0,0,1,14.94-3.78,30.77,30.77,0,0,1,15.9,4.2,29.6,29.6,0,0,1,11.22,11.82,36.94,36.94,0,0,1,4.08,17.7,37.75,37.75,0,0,1-4.08,17.76,29.92,29.92,0,0,1-27.12,16.44,28.66,28.66,0,0,1-14.82-3.78,27,27,0,0,1-9.78-9.42v43.32H907.8a9,9,0,0,1-9-9v-88h1.92a9,9,0,0,1,9,9v3.12A26,26,0,0,1,919.38,384.49Zm32,17a20.77,20.77,0,0,0-8.1-8.4A22.42,22.42,0,0,0,932,390.19a21.84,21.84,0,0,0-11.1,2.94,21.49,21.49,0,0,0-8.16,8.52,29,29,0,0,0,0,25.92,21.49,21.49,0,0,0,8.16,8.52A21.84,21.84,0,0,0,932,439a22.07,22.07,0,0,0,11.22-2.94,21.09,21.09,0,0,0,8.1-8.52,27.35,27.35,0,0,0,3-13.14A26.74,26.74,0,0,0,951.36,401.47Zm28.56-4.74a29.54,29.54,0,0,1,11.22-11.82,30.75,30.75,0,0,1,15.9-4.2,29.21,29.21,0,0,1,15,3.72,24.86,24.86,0,0,1,9.48,9.36v-3a9,9,0,0,1,9-9h2v56.76a9,9,0,0,1-9,9h-2V435.31a25.8,25.8,0,0,1-9.66,9.54,28.92,28.92,0,0,1-14.94,3.78,29.78,29.78,0,0,1-15.84-4.32,30.16,30.16,0,0,1-11.16-12.12,37.75,37.75,0,0,1-4.08-17.76A36.94,36.94,0,0,1,979.92,396.73Zm48.6,4.86a21.18,21.18,0,0,0-8.1-8.46,23,23,0,0,0-22.38-.06,20.83,20.83,0,0,0-8,8.4,26.74,26.74,0,0,0-3,13,27.35,27.35,0,0,0,3,13.14,21.16,21.16,0,0,0,8,8.52A21.74,21.74,0,0,0,1009.2,439a22.09,22.09,0,0,0,11.22-2.94,21.09,21.09,0,0,0,8.1-8.52,27.2,27.2,0,0,0,3-13A26.85,26.85,0,0,0,1028.52,401.59Zm42.23,44.46a22.78,22.78,0,0,1-9.47-7.2,19.09,19.09,0,0,1-3.85-10.62h4.62a9.24,9.24,0,0,1,8.06,4.47,12,12,0,0,0,3.22,3.57q4.14,3.12,10.87,3.12,6.22,0,9.84-2.76a8.45,8.45,0,0,0,3.59-7,6.86,6.86,0,0,0-3.84-6.42,53.91,53.91,0,0,0-11.87-4.14,87,87,0,0,1-12-3.9,21.18,21.18,0,0,1-7.92-5.88q-3.3-3.9-3.3-10.26a15.55,15.55,0,0,1,3-9.24,20.31,20.31,0,0,1,8.53-6.66,30.59,30.59,0,0,1,12.6-2.46q10.9,0,17.63,5.52t7.2,15.12h-4.23a8.77,8.77,0,0,1-7.9-4.65,11.13,11.13,0,0,0-2.92-3.63q-3.79-3.12-10.15-3.12-5.88,0-9.35,2.52a7.77,7.77,0,0,0-3.49,6.6,7.2,7.2,0,0,0,2.11,5.34,15.2,15.2,0,0,0,5.27,3.36,90.41,90.41,0,0,0,8.83,2.82,95.36,95.36,0,0,1,11.51,3.78A20.15,20.15,0,0,1,1105,420a14.92,14.92,0,0,1,3.3,9.72,16.64,16.64,0,0,1-3,9.72,20,20,0,0,1-8.46,6.78,30.24,30.24,0,0,1-12.54,2.46A34,34,0,0,1,1070.75,446.05Zm62.64,0a22.87,22.87,0,0,1-9.48-7.2,19.16,19.16,0,0,1-3.84-10.62h4.62a9.26,9.26,0,0,1,8.06,4.47,11.9,11.9,0,0,0,3.22,3.57q4.14,3.12,10.86,3.12,6.24,0,9.84-2.76a8.43,8.43,0,0,0,3.6-7,6.86,6.86,0,0,0-3.84-6.42,53.84,53.84,0,0,0-11.88-4.14,87.31,87.31,0,0,1-11.94-3.9,21.18,21.18,0,0,1-7.92-5.88q-3.3-3.9-3.3-10.26a15.55,15.55,0,0,1,3-9.24,20.34,20.34,0,0,1,8.52-6.66,30.66,30.66,0,0,1,12.6-2.46q10.92,0,17.64,5.52t7.2,15.12h-4.24a8.77,8.77,0,0,1-7.89-4.65,11.16,11.16,0,0,0-2.93-3.63q-3.78-3.12-10.14-3.12-5.88,0-9.36,2.52a7.79,7.79,0,0,0-3.48,6.6,7.23,7.23,0,0,0,2.1,5.34,15.34,15.34,0,0,0,5.28,3.36,91,91,0,0,0,8.82,2.82,95,95,0,0,1,11.52,3.78,20.15,20.15,0,0,1,7.62,5.58,14.92,14.92,0,0,1,3.3,9.72,16.64,16.64,0,0,1-3,9.72,20,20,0,0,1-8.46,6.78,30.24,30.24,0,0,1-12.54,2.46A34,34,0,0,1,1133.39,446.05Z" transform="translate(-546.48 -356.23)" fill="#68d391"/></svg>